<svg width="48" height="48" viewBox="0 0 48 48" fill="none" xmlns="http://www.w3.org/2000/svg">
	<path fill-rule="evenodd" clip-rule="evenodd" d="M42.8264 19.2566H45.3709C46.8149 19.2566 48.001 20.4176 48 21.8585V26.1655C48 27.6105 46.8128 28.7455 45.3688 28.7455H42.8233C42.3503 30.5873 41.6121 32.3258 40.6515 33.9066L42.4787 35.7546C42.9715 36.2495 43.2451 36.9063 43.2451 37.6058C43.243 38.3044 42.9726 38.9632 42.4787 39.456L39.4299 42.5017C38.936 42.9945 38.2772 43.267 37.5777 43.267C36.8771 43.267 36.2193 42.9956 35.7244 42.4996L33.8272 40.6077C32.2631 41.5192 30.5884 42.2208 28.7434 42.6719V45.3918C28.7434 46.8358 27.5897 48 26.1457 48H21.8356C20.3915 48 19.2555 46.8358 19.2555 45.3918V42.6729C17.4116 42.2208 15.7264 41.5192 14.1624 40.6077L12.2485 42.5038C11.7536 42.9966 11.0958 43.2691 10.3973 43.2691C9.69877 43.2691 9.04203 42.9977 8.54712 42.5038L5.4983 39.456C5.00444 38.9622 4.73192 38.3012 4.73192 37.6017C4.73192 36.9021 5.00339 36.2412 5.4983 35.7473L7.32759 33.9066C6.36701 32.3268 5.62882 30.5894 5.15688 28.7455H2.61133C1.16628 28.7455 0 27.6105 0 26.1655V21.8585C0 20.4176 1.16628 19.2566 2.61133 19.2566H5.15688C5.62882 17.4127 6.36805 15.6857 7.32968 14.106L5.50039 12.2683C5.00548 11.7745 4.73506 11.1167 4.73506 10.4182C4.73506 9.72905 5.01383 9.05455 5.50248 8.56695L8.5492 5.52127C9.54007 4.53354 11.2691 4.5325 12.2569 5.52232L14.1624 7.41738C15.7264 6.50587 17.4116 5.80318 19.2555 5.35317V2.63117C19.2555 1.18716 20.3915 0 21.8356 0H26.1457C27.5897 0 28.7434 1.18716 28.7434 2.63117V5.35422C30.5884 5.80527 32.2631 6.50692 33.8251 7.41738L35.7317 5.52232C36.7163 4.53459 38.4443 4.53354 39.433 5.52336L42.4819 8.56904C42.9736 9.06186 43.2472 9.72174 43.2472 10.4203C43.2472 11.1198 42.9757 11.7786 42.4819 12.2725L40.6526 14.106C41.6152 15.6857 42.3534 17.4127 42.8264 19.2566ZM10.1982 24.1349C10.1982 31.7801 16.397 37.9828 24.0417 37.9828C31.6881 37.9828 37.8887 31.7819 37.8905 24.1349C37.8905 16.4843 31.6881 10.2905 24.0417 10.2905C16.397 10.2905 10.1982 16.4843 10.1982 24.1349Z" fill="white" fill-opacity="0.75"/>
	<path fill-rule="evenodd" clip-rule="evenodd" d="M35 24C35 17.9249 30.0751 13 24 13C17.9249 13 13 17.9249 13 24C13 30.0751 17.9249 35 24 35C30.0751 35 35 30.0751 35 24ZM27.8322 20.4387C28.1021 20.2216 28.498 20.2383 28.7486 20.4889C29.0171 20.7573 29.0171 21.1927 28.7486 21.4611L22.6986 27.5111L22.6428 27.5613C22.3729 27.7784 21.977 27.7617 21.7264 27.5111L19.2514 25.0361L19.2012 24.9803C18.9841 24.7104 19.0008 24.3145 19.2514 24.0639C19.5198 23.7954 19.9552 23.7954 20.2236 24.0639L22.2125 26.0527L27.7764 20.4889L27.8322 20.4387Z" fill="white"/>
</svg>
